<svg xmlns="http://www.w3.org/2000/svg" viewBox="0 0 24 30" x="0px" y="0px">
  <title>audio</title>
  <g>
    <path fill="#ffffff" d="M2,15a1,1,0,0,1-1-1V10a1,1,0,0,1,2,0v4A1,1,0,0,1,2,15Z" />
    <path fill="#ffffff" d="M7,19a1,1,0,0,1-1-1V6A1,1,0,0,1,8,6V18A1,1,0,0,1,7,19Z" />
    <path fill="#ffffff" d="M22,15a1,1,0,0,1-1-1V10a1,1,0,0,1,2,0v4A1,1,0,0,1,22,15Z" />
    <path fill="#ffffff" d="M17,19a1,1,0,0,1-1-1V6a1,1,0,0,1,2,0V18A1,1,0,0,1,17,19Z" />
    <path fill="#ffffff" d="M12,23a1,1,0,0,1-1-1V2a1,1,0,0,1,2,0V22A1,1,0,0,1,12,23Z" />
  </g>
</svg>