<svg xmlns="http://www.w3.org/2000/svg" version="1.1" viewBox="-5.0 -10.0 110.0 135.0">
 <path d="m69.051 37.965c0.82031 1.4375 0.32422 3.2695-1.1133 4.0898-1.4375 0.82031-3.2695 0.32422-4.0898-1.1133-1.1914-2.082-2.8047-3.8594-4.6914-5.2227-1.9062-1.375-4.0977-2.3477-6.4375-2.8203-1.6172-0.32422-2.6641-1.8984-2.3438-3.5156 0.32422-1.6172 1.8984-2.6641 3.5156-2.3438 3.1992 0.64453 6.1797 1.9688 8.7578 3.8281 2.5977 1.875 4.7969 4.2891 6.4023 7.0977zm-2.832 34.09c-0.29297 2.3828-1.3828 4.5195-2.9961 6.1328-1.8984 1.8984-4.5234 3.0742-7.418 3.0742h-27.836c-3.1211 0-5.957-1.2695-8.0156-3.3242l-0.011719-0.011719c-1.5742-1.5781-2.6836-3.6055-3.1211-5.8711-3.7656-0.054688-7.1914-1.6211-9.6914-4.1172l-0.011718-0.011719c-2.543-2.5508-4.1172-6.0547-4.1172-9.8984 0-3.8516 1.5781-7.3555 4.1172-9.8984 2.5391-2.5508 6.0469-4.1289 9.9102-4.1289h2.375c1.1602-6.7461 4.543-12.738 9.3672-17.191 5.4297-5.0117 12.684-8.0742 20.645-8.0742 6.8711 0 13.219 2.2812 18.32 6.1289 4.6211 3.4844 8.2188 8.2578 10.262 13.781h2.3047c4.5977 0 8.7734 1.8789 11.801 4.9023 3.0234 3.0234 4.9023 7.2031 4.9023 11.801s-1.8789 8.7773-4.9023 11.801c-3.0234 3.0234-7.2031 4.9023-11.801 4.9023h-14.078zm-48.926-6c0.58203-1.625 1.5234-3.0742 2.7266-4.25 1.5273-1.4922 3.4844-2.5547 5.668-3 0.94531-3.1289 2.7773-5.8789 5.2031-7.9531 2.9609-2.5352 6.8008-4.0703 10.992-4.0703 4.5703 0 8.7227 1.8242 11.773 4.7812 2.4648 2.3906 4.207 5.5352 4.8516 9.0664 1.8008 0.48047 3.4141 1.4336 4.6992 2.7148 0.78906 0.78906 1.457 1.7031 1.9648 2.7109h15.121c2.9414 0 5.6172-1.207 7.5586-3.1445 1.9414-1.9414 3.1445-4.6172 3.1445-7.5586 0-2.9414-1.207-5.6172-3.1445-7.5586-1.9414-1.9414-4.6172-3.1445-7.5586-3.1445h-4.4766c-1.3047 0-2.5078-0.85938-2.8828-2.1797-1.4766-5.1797-4.6211-9.6602-8.8164-12.82-4.0859-3.082-9.1836-4.9102-14.711-4.9102-6.4062 0-12.234 2.457-16.59 6.4766-4.3672 4.0273-7.2617 9.6367-7.7852 15.914-0.066406 1.5938-1.3828 2.8711-2.9961 2.8711h-5.0156c-2.2031 0-4.2109 0.90625-5.668 2.3594-1.457 1.4492-2.3594 3.4609-2.3594 5.668 0 2.2109 0.89844 4.2188 2.3477 5.6641l0.011718 0.011719c1.4492 1.4492 3.4531 2.3477 5.6641 2.3477h0.26562zm41.688 7.8906c0.8125-0.8125 1.3164-1.9375 1.3164-3.1758 0-1.25-0.5-2.375-1.3047-3.1797-0.8125-0.8125-1.9414-1.3164-3.1953-1.3164-1.6133-0.011719-2.9453-1.2969-2.9883-2.918-0.089844-2.9336-1.3438-5.5859-3.3203-7.5039-1.9609-1.8984-4.6406-3.0703-7.6016-3.0703-2.7188 0-5.1992 0.98438-7.1016 2.6172-1.9297 1.6562-3.2812 3.9805-3.6875 6.6211-0.23047 1.4414-1.4844 2.543-2.9883 2.5312h-0.12891c-1.457 0.003907-2.7891 0.58984-3.7617 1.543-0.94531 0.92578-1.5508 2.1953-1.6055 3.6055l0.007813 0.21094c0 1.4844 0.59375 2.8242 1.5547 3.7812l0.011719 0.011719c0.96094 0.96094 2.2969 1.5547 3.7812 1.5547h27.836c1.2383 0 2.3633-0.50391 3.1758-1.3164z"/>
<text x="0.0" y="117.5" font-size="5.0" font-weight="bold" font-family="Arbeit Regular, Helvetica, Arial-Unicode, Arial, Sans-serif" fill="#000000">Created by Rofidatul Hasanah</text><text x="0.0" y="122.5" font-size="5.0" font-weight="bold" font-family="Arbeit Regular, Helvetica, Arial-Unicode, Arial, Sans-serif" fill="#000000">from Noun Project</text></svg>