<svg xmlns="http://www.w3.org/2000/svg" xmlns:xlink="http://www.w3.org/1999/xlink" version="1.1" x="0px" y="0px" viewBox="0 0 96 120" style="enable-background:new 0 0 96 96;" xml:space="preserve"><path fill="white" d="M34.026,6.023l0.325-2.113c0.09-0.586,0.64-0.988,1.225-0.898c0.586,0.09,0.988,0.638,0.898,1.225L36.149,6.35  c-0.082,0.531-0.539,0.911-1.06,0.911c-0.054,0-0.109-0.004-0.165-0.013C34.338,7.158,33.936,6.61,34.026,6.023z M27.249,8.529  c0.21,0.287,0.536,0.439,0.867,0.439c0.22,0,0.443-0.068,0.634-0.208c0.478-0.351,0.581-1.023,0.231-1.501l-1.264-1.724  c-0.351-0.478-1.023-0.582-1.501-0.231c-0.478,0.351-0.581,1.023-0.231,1.501L27.249,8.529z M22.116,14.768l2.113,0.325  c0.055,0.008,0.11,0.013,0.165,0.013c0.521,0,0.978-0.38,1.06-0.911c0.09-0.586-0.312-1.134-0.898-1.224l-2.113-0.325  c-0.586-0.089-1.135,0.312-1.225,0.898C21.127,14.129,21.53,14.678,22.116,14.768z M23.74,21.402  c-0.478,0.351-0.581,1.023-0.231,1.501c0.21,0.287,0.536,0.439,0.867,0.439c0.22,0,0.443-0.068,0.634-0.208l1.724-1.264  c0.478-0.351,0.581-1.023,0.231-1.501c-0.351-0.478-1.022-0.582-1.501-0.231L23.74,21.402z M41.226,10.984  c0.22,0,0.443-0.068,0.634-0.208l1.724-1.264c0.478-0.351,0.581-1.023,0.231-1.501s-1.023-0.581-1.501-0.231L40.59,9.044  c-0.478,0.351-0.581,1.023-0.231,1.501C40.57,10.832,40.896,10.984,41.226,10.984z M21.205,30.966c0-4.053,3.119-7.531,7.131-7.988  c0.323-0.735,0.757-1.396,1.272-1.974c-2.038-1.485-3.132-4.006-2.735-6.591c0.576-3.743,4.09-6.321,7.833-5.745  c2.793,0.429,4.96,2.51,5.618,5.117c1.747-1.221,3.858-1.922,6.079-1.922c3.82,0,7.326,2.041,9.219,5.346  c1.335-0.732,2.841-1.118,4.373-1.118c4.256,0,7.964,2.984,8.882,7.12c3.494,0.959,5.92,4.123,5.92,7.754  c0,4.433-3.607,8.04-8.04,8.04h-37.51C24.812,39.006,21.205,35.4,21.205,30.966z M31.346,19.569c1.135-0.678,2.452-1.06,3.839-1.06  c0.443,0,0.887,0.039,1.322,0.117c0.449-1.151,1.089-2.193,1.874-3.095c0.039-2.332-1.661-4.379-4.002-4.739  c-2.571-0.395-4.988,1.375-5.384,3.948C28.693,16.706,29.648,18.616,31.346,19.569z M23.353,30.966c0,3.249,2.643,5.893,5.893,5.893  h37.51c3.249,0,5.893-2.643,5.893-5.893c0-2.703-1.835-5.054-4.463-5.716c-0.706-0.178-1.235-0.732-1.379-1.446  c-0.652-3.225-3.517-5.565-6.812-5.565c-1.243,0-2.462,0.332-3.526,0.959c-0.443,0.261-0.959,0.329-1.455,0.191  c-0.496-0.138-0.903-0.464-1.147-0.917c-1.482-2.752-4.342-4.461-7.463-4.461c-3.547,0-6.745,2.238-7.96,5.568c0,0,0,0,0,0  c-0.323,0.885-1.228,1.386-2.148,1.192c-0.362-0.077-0.735-0.115-1.109-0.115c-2.166,0-4.101,1.293-4.93,3.294  c-0.271,0.654-0.853,1.083-1.557,1.149C25.701,25.379,23.353,27.956,23.353,30.966z M93,48.454v39.523  C93,90.747,90.747,93,87.977,93H8.023C5.253,93,3,90.747,3,87.977V48.454c0-2.77,2.253-5.023,5.023-5.023h79.954  C90.747,43.431,93,45.684,93,48.454z M90.852,48.454c0-1.585-1.29-2.875-2.875-2.875H8.023c-1.585,0-2.875,1.29-2.875,2.875v39.523  c0,1.585,1.29,2.875,2.875,2.875h79.954c1.585,0,2.875-1.29,2.875-2.875V48.454z M32.176,51.187v34.057  c0,1.521-1.27,2.758-2.831,2.758H9.539c-1.561,0-2.831-1.237-2.831-2.758V51.187c0-1.521,1.27-2.758,2.831-2.758h19.805  C30.906,48.429,32.176,49.666,32.176,51.187z M30.028,51.187c0-0.331-0.313-0.611-0.684-0.611H9.539  c-0.371,0-0.684,0.28-0.684,0.611v34.057c0,0.331,0.313,0.611,0.684,0.611h19.805c0.371,0,0.684-0.28,0.684-0.611V51.187z   M60.734,51.187v34.057c0,1.521-1.27,2.758-2.831,2.758H38.097c-1.561,0-2.831-1.237-2.831-2.758V51.187  c0-1.521,1.27-2.758,2.831-2.758h19.805C59.464,48.429,60.734,49.666,60.734,51.187z M58.587,51.187  c0-0.331-0.313-0.611-0.684-0.611H38.097c-0.371,0-0.684,0.28-0.684,0.611v34.057c0,0.331,0.313,0.611,0.684,0.611h19.805  c0.371,0,0.684-0.28,0.684-0.611V51.187z M89.293,51.187v34.057c0,1.521-1.27,2.758-2.831,2.758H66.656  c-1.561,0-2.831-1.237-2.831-2.758V51.187c0-1.521,1.27-2.758,2.831-2.758h19.805C88.022,48.429,89.293,49.666,89.293,51.187z   M87.145,51.187c0-0.331-0.313-0.611-0.684-0.611H66.656c-0.371,0-0.684,0.28-0.684,0.611v34.057c0,0.331,0.313,0.611,0.684,0.611  h19.805c0.371,0,0.684-0.28,0.684-0.611V51.187z M84.188,59.073c0,1.571-1.278,2.849-2.849,2.849h-9.561  c-1.571,0-2.849-1.278-2.849-2.849c0-1.287,0.887-2.41,2.095-2.747c0.467-0.72,1.251-1.179,2.124-1.225  c0.626-1.036,1.764-1.697,3.004-1.697c1.022,0,1.976,0.442,2.633,1.19c0.269-0.074,0.549-0.112,0.831-0.112  c1.303,0,2.457,0.817,2.913,2.002C83.526,56.942,84.188,57.944,84.188,59.073z M82.041,59.073c0-0.317-0.224-0.603-0.533-0.681  c-0.481-0.121-0.841-0.499-0.94-0.985c-0.091-0.451-0.492-0.778-0.952-0.778c-0.177,0-0.342,0.045-0.492,0.133  c-0.304,0.178-0.656,0.224-0.992,0.131c-0.339-0.095-0.616-0.317-0.783-0.626c-0.238-0.441-0.696-0.716-1.197-0.716  c-0.569,0-1.083,0.359-1.277,0.893c0,0,0,0,0,0c-0.217,0.594-0.846,0.943-1.465,0.812c-0.038-0.008-0.077-0.012-0.117-0.012  c-0.227,0-0.43,0.136-0.517,0.346c-0.182,0.439-0.589,0.74-1.063,0.783c-0.356,0.033-0.636,0.34-0.636,0.699  c0,0.38,0.321,0.702,0.702,0.702h9.561C81.719,59.775,82.041,59.454,82.041,59.073z M75.253,65.688c0.314,0,0.626-0.137,0.838-0.402  l0.589-0.733c0.371-0.463,0.297-1.138-0.165-1.509c-0.463-0.371-1.138-0.297-1.509,0.165l-0.589,0.733  c-0.371,0.463-0.297,1.138,0.165,1.509C74.78,65.611,75.017,65.688,75.253,65.688z M78.484,65.688c0.314,0,0.626-0.137,0.838-0.402  l0.589-0.733c0.371-0.463,0.297-1.138-0.165-1.509c-0.463-0.371-1.139-0.297-1.509,0.165l-0.589,0.733  c-0.371,0.463-0.297,1.138,0.165,1.509C78.011,65.611,78.249,65.688,78.484,65.688z M72.022,65.688c0.314,0,0.626-0.137,0.838-0.402  l0.589-0.733c0.371-0.463,0.297-1.138-0.165-1.509c-0.463-0.371-1.139-0.297-1.509,0.165l-0.589,0.733  c-0.371,0.463-0.297,1.138,0.165,1.509C71.549,65.611,71.786,65.688,72.022,65.688z M16.122,60.418c0-1.83,1.489-3.319,3.319-3.319  s3.319,1.489,3.319,3.319s-1.489,3.319-3.319,3.319S16.122,62.249,16.122,60.418z M18.27,60.418c0,0.646,0.526,1.172,1.172,1.172  c0.646,0,1.172-0.526,1.172-1.172s-0.526-1.172-1.172-1.172C18.796,59.247,18.27,59.772,18.27,60.418z M19.442,56.654  c0.593,0,1.074-0.481,1.074-1.074v-1.103c0-0.593-0.481-1.074-1.074-1.074c-0.593,0-1.074,0.481-1.074,1.074v1.103  C18.368,56.174,18.849,56.654,19.442,56.654z M15.262,57.757c0.21,0.21,0.484,0.314,0.759,0.314c0.275,0,0.55-0.105,0.759-0.315  c0.419-0.419,0.419-1.099,0-1.518L16,55.459c-0.419-0.419-1.099-0.419-1.519,0c-0.419,0.419-0.419,1.099,0,1.518L15.262,57.757z   M15.678,60.419c0-0.593-0.481-1.074-1.074-1.074h-1.103c-0.593,0-1.074,0.481-1.074,1.074s0.481,1.074,1.074,1.074h1.103  C15.197,61.492,15.678,61.012,15.678,60.419z M15.262,63.08l-0.78,0.78c-0.419,0.419-0.419,1.099,0,1.519  c0.21,0.21,0.484,0.314,0.759,0.314c0.275,0,0.55-0.105,0.759-0.314l0.78-0.78c0.419-0.419,0.419-1.099,0-1.519  C16.361,62.661,15.681,62.661,15.262,63.08z M18.368,65.256v1.103c0,0.593,0.481,1.074,1.074,1.074c0.593,0,1.074-0.481,1.074-1.074  v-1.103c0-0.593-0.481-1.074-1.074-1.074C18.849,64.183,18.368,64.663,18.368,65.256z M22.103,64.598l0.78,0.78  c0.21,0.21,0.484,0.315,0.759,0.315c0.275,0,0.55-0.105,0.759-0.314c0.419-0.419,0.419-1.099,0-1.518l-0.78-0.78  c-0.419-0.419-1.099-0.419-1.519,0C21.684,63.499,21.684,64.179,22.103,64.598z M25.382,59.345h-1.103  c-0.593,0-1.074,0.481-1.074,1.074s0.481,1.074,1.074,1.074h1.103c0.593,0,1.074-0.481,1.074-1.074S25.975,59.345,25.382,59.345z   M22.863,58.071c0.275,0,0.55-0.105,0.759-0.315l0.78-0.78c0.419-0.419,0.419-1.099,0-1.518c-0.419-0.419-1.099-0.419-1.519,0  l-0.78,0.78c-0.419,0.419-0.419,1.099,0,1.518C22.313,57.967,22.588,58.071,22.863,58.071z M24.896,75.453H14.832  c-0.593,0-1.074,0.481-1.074,1.074c0,0.593,0.481,1.074,1.074,1.074h10.065c0.593,0,1.074-0.481,1.074-1.074  C25.97,75.933,25.489,75.453,24.896,75.453z M24.896,80.879H14.832c-0.593,0-1.074,0.481-1.074,1.074  c0,0.593,0.481,1.074,1.074,1.074h10.065c0.593,0,1.074-0.481,1.074-1.074C25.97,81.36,25.489,80.879,24.896,80.879z M55.63,59.073  c0,1.571-1.278,2.849-2.849,2.849H43.22c-1.571,0-2.849-1.278-2.849-2.849c0-1.287,0.888-2.411,2.095-2.747  c0.468-0.72,1.252-1.179,2.123-1.225c0.626-1.036,1.764-1.697,3.004-1.697c1.022,0,1.976,0.442,2.633,1.19  c0.269-0.074,0.549-0.112,0.831-0.112c1.303,0,2.457,0.817,2.912,2.002C54.968,56.942,55.63,57.944,55.63,59.073z M53.482,59.073  c0-0.317-0.224-0.603-0.533-0.681c-0.481-0.121-0.841-0.499-0.94-0.985c-0.091-0.451-0.492-0.778-0.952-0.778  c-0.177,0-0.342,0.045-0.492,0.133c-0.302,0.178-0.654,0.224-0.992,0.13c-0.338-0.094-0.616-0.316-0.783-0.626  c-0.238-0.441-0.696-0.716-1.197-0.716c-0.569,0-1.082,0.359-1.277,0.893c0,0,0,0,0,0c-0.217,0.594-0.847,0.943-1.465,0.812  c-0.038-0.008-0.077-0.012-0.117-0.012c-0.227,0-0.43,0.136-0.517,0.346c-0.181,0.438-0.588,0.739-1.063,0.783  c-0.356,0.033-0.636,0.34-0.636,0.699c0,0.38,0.321,0.702,0.702,0.702h9.561C53.161,59.775,53.482,59.454,53.482,59.073z   M53.032,75.453H42.968c-0.593,0-1.074,0.481-1.074,1.074c0,0.593,0.481,1.074,1.074,1.074h10.065c0.593,0,1.074-0.481,1.074-1.074  C54.106,75.933,53.625,75.453,53.032,75.453z M53.032,80.879H42.968c-0.593,0-1.074,0.481-1.074,1.074  c0,0.593,0.481,1.074,1.074,1.074h10.065c0.593,0,1.074-0.481,1.074-1.074C54.106,81.36,53.625,80.879,53.032,80.879z   M81.591,75.453H71.526c-0.593,0-1.074,0.481-1.074,1.074c0,0.593,0.481,1.074,1.074,1.074h10.065c0.593,0,1.074-0.481,1.074-1.074  C82.665,75.933,82.184,75.453,81.591,75.453z M81.591,80.879H71.526c-0.593,0-1.074,0.481-1.074,1.074  c0,0.593,0.481,1.074,1.074,1.074h10.065c0.593,0,1.074-0.481,1.074-1.074C82.665,81.36,82.184,80.879,81.591,80.879z"/></svg>